<?xml version="1.0" encoding="utf-8"?>
<!-- Generator: Adobe Illustrator 17.1.0, SVG Export Plug-In . SVG Version: 6.00 Build 0)  -->
<!DOCTYPE svg PUBLIC "-//W3C//DTD SVG 1.1//EN" "http://www.w3.org/Graphics/SVG/1.1/DTD/svg11.dtd">
<svg version="1.1" id="Icon" xmlns="http://www.w3.org/2000/svg" xmlns:xlink="http://www.w3.org/1999/xlink" x="0px" y="0px"
	 viewBox="40 40 20 20" enable-background="new 40 40 20 20" xml:space="preserve">
<path id="rect11874_3_" d="M42.8,40c-0.1,0-0.3,0-0.4,0.1l-2.3,2.3c-0.2,0.2-0.1,0.6,0.1,0.8L47,50l-6.8,6.8
	c-0.2,0.2-0.3,0.6-0.1,0.8l2.3,2.3c0.2,0.2,0.6,0.2,0.8-0.1L50,53l6.8,6.8c0.2,0.2,0.6,0.3,0.8,0.1l2.3-2.3c0.2-0.2,0.1-0.6-0.1-0.8
	L53,50l6.8-6.8c0.2-0.2,0.3-0.6,0.1-0.8l-2.3-2.3c-0.2-0.2-0.6-0.1-0.8,0.1L50,47l-6.8-6.8C43.1,40.1,42.9,40,42.8,40z"/>
</svg>
